<svg width="22" height="22" viewBox="0 0 22 22" fill="none" xmlns="http://www.w3.org/2000/svg">
<path d="M13.4651 10.9985L20.9829 3.49719C21.3121 3.16793 21.497 2.72136 21.497 2.25571C21.497 1.79007 21.3121 1.3435 20.9829 1.01424C20.6536 0.684977 20.2071 0.5 19.7416 0.5C19.276 0.5 18.8295 0.684977 18.5003 1.01424L11 8.53304L3.49975 1.01424C3.17053 0.684977 2.72403 0.5 2.25845 0.5C1.79287 0.5 1.34636 0.684977 1.01715 1.01424C0.687934 1.3435 0.502984 1.79007 0.502984 2.25571C0.502984 2.72136 0.687934 3.16793 1.01715 3.49719L8.53488 10.9985L1.01715 18.4998C0.853281 18.6624 0.723217 18.8558 0.634458 19.0688C0.545698 19.2819 0.5 19.5105 0.5 19.7413C0.5 19.9721 0.545698 20.2007 0.634458 20.4138C0.723217 20.6268 0.853281 20.8202 1.01715 20.9828C1.17968 21.1467 1.37304 21.2768 1.58609 21.3655C1.79914 21.4543 2.02765 21.5 2.25845 21.5C2.48925 21.5 2.71776 21.4543 2.93081 21.3655C3.14386 21.2768 3.33722 21.1467 3.49975 20.9828L11 13.464L18.5003 20.9828C18.6628 21.1467 18.8561 21.2768 19.0692 21.3655C19.2822 21.4543 19.5108 21.5 19.7416 21.5C19.9723 21.5 20.2009 21.4543 20.4139 21.3655C20.627 21.2768 20.8203 21.1467 20.9829 20.9828C21.1467 20.8202 21.2768 20.6268 21.3655 20.4138C21.4543 20.2007 21.5 19.9721 21.5 19.7413C21.5 19.5105 21.4543 19.2819 21.3655 19.0688C21.2768 18.8558 21.1467 18.6624 20.9829 18.4998L13.4651 10.9985Z" fill="black"/>
</svg>
