<svg width="60" height="31" viewBox="0 0 60 31" fill="none" xmlns="http://www.w3.org/2000/svg">
<path d="M2.23231 0.538675C1.90623 0.929979 1.90623 1.32128 2.1997 2.39737C3.27579 6.14736 4.22144 11.2669 3.86274 11.3974C3.14535 11.6256 0.927967 13.8104 0.438837 14.7234C-0.898117 17.3321 0.86275 20.1691 5.13448 22.1582L6.7323 22.9082L7.28665 25.3212C8.13447 29.2343 8.26491 29.0386 5.00405 29.0386H2.23231L2.33014 29.9517L2.42796 30.8321L6.04752 30.9299C8.68882 30.9951 9.76491 30.8973 10.0258 30.6038C10.254 30.3104 10.1888 29.3647 9.76491 27.2451C9.40621 25.6147 9.14534 24.1473 9.11273 23.9517C9.11273 23.6908 9.79751 23.7234 11.4606 24.0495C12.7323 24.2778 15.5692 24.5386 17.7214 24.5712C21.5366 24.6691 21.7323 24.7343 23.3627 25.7451C25.417 27.0495 27.6344 27.4408 28.4497 26.593C28.8083 26.2669 29.004 25.5495 29.004 24.6691C29.004 23.2995 29.004 23.2995 30.7323 22.7452C31.6453 22.4517 32.8518 21.9299 33.3409 21.5712C34.254 20.9843 34.2866 20.9843 35.6236 21.7017C36.3736 22.1256 37.5475 22.5495 38.2322 22.6473C39.1453 22.8104 39.4388 23.0386 39.4388 23.4952C39.4388 24.343 38.754 24.3104 36.5366 23.4625C33.6018 22.3539 33.4388 22.5169 33.2431 25.9408L33.0801 28.8756L31.1236 29.0386C29.2975 29.2017 29.167 29.2669 29.167 30.0169C29.167 30.7995 29.2323 30.8321 31.7105 30.9299C33.3409 30.9951 34.4496 30.8973 34.7431 30.6364C35.0692 30.3756 35.1996 29.4951 35.1996 27.7343V25.1908L37.7757 26.0386C41.0366 27.1147 41.3953 26.9843 41.3953 24.6365C41.3953 22.8756 41.3953 22.843 42.3735 22.843C43.3192 22.843 43.3518 22.9082 43.3518 24.2778C43.3518 27.0495 43.6127 27.1799 47.2322 26.006L49.5474 25.256V27.7343C49.5474 29.2343 49.7105 30.3756 49.9387 30.6038C50.4931 31.1582 54.8953 31.1256 55.3844 30.5386C56.1344 29.6256 55.4496 29.0386 53.5909 29.0386H51.8627L51.7648 26.2343C51.6344 22.5495 51.4387 22.4191 48.1127 23.5604L45.6344 24.4082V23.4952C45.6344 22.7452 45.8953 22.4191 47.004 21.7995C47.754 21.3756 48.6996 20.593 49.0583 20.0386L49.7431 19.0278L50.917 20.2669C53.167 22.5821 55.8409 22.2234 56.8844 19.4191C57.6018 17.5604 57.3735 15.506 56.167 13.1582C55.3518 11.5278 55.3518 11.43 55.8735 10.6474C56.6887 9.37561 57.6996 8.5604 58.7105 8.33214C59.8192 8.07127 60.08 7.74518 59.8192 6.86475C59.33 5.33214 56.5257 6.50606 54.5692 9.04953C53.9822 9.79953 53.4605 10.3213 53.3626 10.2234C53.0366 9.92996 50.7866 10.0604 50.4605 10.3865C50.2648 10.5821 49.7431 10.6147 49.1235 10.4191C47.6887 9.99518 34.4823 10.0604 33.3736 10.4517C32.6562 10.7452 32.0366 10.6474 30.1779 9.99518C26.917 8.88649 24.5366 8.49518 20.0366 8.33214L16.1236 8.1691L13.5149 6.08214C6.63448 0.603893 3.47144 -0.961321 2.23231 0.538675ZM5.81926 2.98432C9.53665 5.26693 17.3627 11.8213 21.0475 15.7995C24.6344 19.6147 27.6344 24.3104 26.9823 24.9952C26.167 25.7778 19.6127 20.9517 15.1453 16.2886C10.5801 11.5278 3.50405 2.29954 4.4497 2.29954C4.58013 2.29954 5.23231 2.62563 5.81926 2.98432ZM6.76491 9.99518C6.43883 10.3213 5.85187 9.79953 5.85187 9.21257C5.85187 8.72344 5.88448 8.72344 6.40622 9.24518C6.69969 9.53866 6.86274 9.86474 6.76491 9.99518ZM26.1344 11.1039C27.9605 11.4952 29.7214 11.9843 30.0801 12.2452C30.4714 12.506 31.091 13.5821 31.4823 14.6582L32.2323 16.6147L30.6996 17.1039C29.8518 17.3647 28.4497 17.7234 27.5366 17.9191L25.9062 18.2452L24.9279 17.0386C24.4062 16.3865 22.8084 14.6256 21.3736 13.1256L18.7649 10.4517H20.8192C21.9605 10.4517 24.341 10.7452 26.1344 11.1039ZM11.2323 15.0169C12.7323 16.7126 13.9062 18.1473 13.841 18.2126C13.7432 18.3104 7.74317 17.0386 7.64534 16.9082C7.58013 16.843 7.31926 15.7995 7.05839 14.593C6.56926 12.3756 6.56926 12.3756 7.25404 12.0821C7.64534 11.9191 8.10187 11.8213 8.2323 11.8539C8.36273 11.8865 9.7323 13.3213 11.2323 15.0169ZM48.1127 12.2778C48.6996 12.4408 48.7648 12.6365 48.6344 14.2995C48.4061 16.9408 47.5583 18.9626 46.2866 19.8104C45.3409 20.4952 44.8192 20.5604 41.4931 20.5604C36.1779 20.5604 35.8844 20.3973 34.417 16.5821C33.7649 14.9191 33.2431 13.3539 33.2431 13.1256C33.2431 12.8973 33.5692 12.5713 33.9931 12.4082C34.7757 12.1147 47.004 11.9843 48.1127 12.2778ZM53.5257 12.9626C54.6344 14.1365 55.0909 15.343 55.0909 17.1365C55.0909 19.1256 54.83 19.5821 53.754 19.5821C51.5366 19.5821 49.6779 14.3647 51.2431 12.506C51.7974 11.8213 52.6127 12.0169 53.5257 12.9626ZM4.87361 14.006C4.87361 14.3647 4.97144 14.8539 5.06926 15.1473C5.33013 15.8321 4.90622 15.7995 3.89535 15.0169C3.08014 14.3973 3.08014 14.3973 3.73231 13.9082C4.61274 13.2234 4.87361 13.256 4.87361 14.006ZM5.72144 18.4082C5.75404 18.4408 5.85187 18.8647 5.9823 19.3865C6.17796 20.2017 6.14535 20.2995 5.62361 20.1039C4.0584 19.4843 1.93883 17.4626 1.93883 16.5169C1.93883 16.3865 4.93883 17.8865 5.72144 18.4082ZM33.0801 18.9299C33.3409 19.3539 32.1018 20.1039 29.8844 20.8539C28.0583 21.4734 28.0257 21.4734 27.6997 20.8865C27.2431 20.006 27.2431 19.9734 28.7431 19.7452C29.4931 19.6147 30.6344 19.3212 31.2866 19.0604C32.7214 18.5386 32.8192 18.5386 33.0801 18.9299ZM13.1236 20.1365C16.0258 20.593 16.8084 20.8212 17.6888 21.5712L18.7323 22.4843L16.7432 22.5169C15.6345 22.5169 13.4497 22.2886 11.8519 22.0278C8.88447 21.506 8.13447 21.0495 8.13447 19.8104C8.13447 19.3212 8.29752 19.2234 8.88447 19.3865C9.27578 19.5169 11.1671 19.843 13.1236 20.1365Z" fill="black"/>
</svg>
