<svg width="26" height="39" viewBox="0 0 26 39" fill="none" xmlns="http://www.w3.org/2000/svg">
<path d="M22.2255 9.11652C20.1406 5.49376 17.1808 2.48301 13.6315 0.374574L13 0L12.3685 0.374574C8.75879 2.51113 5.76138 5.58505 3.67789 9.28704C1.59441 12.989 0.498354 17.1885 0.500002 21.4629C0.500002 21.7414 0.504731 22.0242 0.513952 22.3036C0.639425 26.091 2.0517 29.278 4.59813 31.5198C6.54674 33.2355 9.04626 34.2828 11.7393 34.5327V39H14.2613V18.3071H11.739V31.9295C7.47793 31.4232 3.237 28.3361 3.03436 22.2156C3.02601 21.9654 3.02175 21.7122 3.02175 21.4629C3.02926 17.7721 3.94833 14.1434 5.69321 10.9154C7.43808 7.68746 9.95188 4.96547 13 3.00346C16.0481 4.96551 18.5618 7.68752 20.3066 10.9155C22.0514 14.1434 22.9705 17.7721 22.9779 21.4629C22.9779 21.7122 22.9737 21.9654 22.9653 22.2157C22.8033 27.1119 20.0565 30.0666 16.7828 31.3122V34.0497C18.4816 33.5559 20.0569 32.693 21.4019 31.5197C23.9483 29.2778 25.3606 26.0909 25.486 22.3035C25.4953 22.0241 25.5 21.7413 25.5 21.4628C25.5023 17.1215 24.3716 12.8586 22.2255 9.11652Z" fill="#04842C"/>
</svg>
