<svg width="50" height="50" viewBox="0 0 50 50" fill="none" xmlns="http://www.w3.org/2000/svg">
<path d="M42.1875 34.375H36.7844L26.3687 18.75H29.6875L31.25 17.1875V4.6875L29.6875 3.125H17.1875L15.625 4.6875V17.1875L17.1875 18.75H20.5062L10.0906 34.375H4.6875L3.125 35.9375V45.3125L4.6875 46.875H14.0625L15.625 45.3125V35.9375L14.0625 34.375H13.85L23.4375 20L33.025 34.375H32.8125L31.25 35.9375V45.3125L32.8125 46.875H42.1875L43.75 45.3125V35.9375L42.1875 34.375ZM18.75 15.625V6.25H28.125V15.625H18.75ZM12.5 37.5V43.75H6.25V37.5H12.5ZM40.625 43.75H34.375V37.5H40.625V43.75Z" fill="#3DBC65"/>
</svg>
