<svg width="31" height="31" viewBox="0 0 31 31" fill="none" xmlns="http://www.w3.org/2000/svg">
<path d="M18.9661 15.5L29.5369 4.95375C29.9999 4.49084 30.2599 3.86299 30.2599 3.20833C30.2599 2.55368 29.9999 1.92583 29.5369 1.46292C29.074 1 28.4462 0.739942 27.7915 0.739942C27.1369 0.739942 26.509 1 26.0461 1.46292L15.4999 12.0337L4.9536 1.46292C4.49069 1 3.86284 0.739942 3.20818 0.739942C2.55353 0.739942 1.92568 1 1.46277 1.46292C0.999853 1.92583 0.739791 2.55368 0.739791 3.20833C0.739791 3.86299 0.999853 4.49084 1.46277 4.95375L12.0336 15.5L1.46277 26.0462C1.23235 26.2748 1.04947 26.5467 0.924659 26.8462C0.799853 27.1458 0.735596 27.4671 0.735596 27.7917C0.735596 28.1162 0.799853 28.4375 0.924659 28.7371C1.04947 29.0367 1.23235 29.3085 1.46277 29.5371C1.6913 29.7675 1.96319 29.9504 2.26277 30.0752C2.56234 30.2 2.88365 30.2642 3.20818 30.2642C3.53271 30.2642 3.85403 30.2 4.1536 30.0752C4.45317 29.9504 4.72507 29.7675 4.9536 29.5371L15.4999 18.9662L26.0461 29.5371C26.2746 29.7675 26.5465 29.9504 26.8461 30.0752C27.1457 30.2 27.467 30.2642 27.7915 30.2642C28.1161 30.2642 28.4374 30.2 28.7369 30.0752C29.0365 29.9504 29.3084 29.7675 29.5369 29.5371C29.7674 29.3085 29.9502 29.0367 30.0751 28.7371C30.1999 28.4375 30.2641 28.1162 30.2641 27.7917C30.2641 27.4671 30.1999 27.1458 30.0751 26.8462C29.9502 26.5467 29.7674 26.2748 29.5369 26.0462L18.9661 15.5Z" fill="#04842C"/>
</svg>
